<?xml version="1.0" encoding="UTF-8" standalone="no"?>
<svg xmlns="http://www.w3.org/2000/svg" xmlns:xlink="http://www.w3.org/1999/xlink" contentScriptType="application/ecmascript" contentStyleType="text/css" height="161px" preserveAspectRatio="none" style="width:634px;height:161px;background:#FFFFFF;" version="1.1" viewBox="0 0 634 161" width="634px" zoomAndPan="magnify"><defs><filter height="300%" id="f19c1zejelnwcv" width="300%" x="-1" y="-1"><feGaussianBlur result="blurOut" stdDeviation="2.0"/><feColorMatrix in="blurOut" result="blurOut2" type="matrix" values="0 0 0 0 0 0 0 0 0 0 0 0 0 0 0 0 0 0 .4 0"/><feOffset dx="4.0" dy="4.0" in="blurOut2" result="blurOut3"/><feBlend in="SourceGraphic" in2="blurOut3" mode="normal"/></filter></defs><g><!--MD5=[6edbe79e8b95e54f2791ceca50806cc1]
entity zipkin--><rect fill="#FEFECE" filter="url(#f19c1zejelnwcv)" height="36.2969" style="stroke:#A80036;stroke-width:1.5;" width="66" x="556" y="42"/><text fill="#000000" font-family="sans-serif" font-size="14" lengthAdjust="spacing" textLength="46" x="566" y="64.9951">Zipkin</text><!--MD5=[5f2f9dbbee692058d60489180693f774]
entity users--><rect fill="#FEFECE" filter="url(#f19c1zejelnwcv)" height="36.2969" style="stroke:#A80036;stroke-width:1.5;" width="115" x="7" y="7"/><text fill="#000000" font-family="sans-serif" font-size="14" lengthAdjust="spacing" textLength="95" x="17" y="29.9951">Users Service</text><!--MD5=[baad76b5d4dae6ce76ccc0474d000b79]
entity sales--><rect fill="#FEFECE" filter="url(#f19c1zejelnwcv)" height="36.2969" style="stroke:#A80036;stroke-width:1.5;" width="114" x="182" y="42"/><text fill="#000000" font-family="sans-serif" font-size="14" lengthAdjust="spacing" textLength="94" x="192" y="64.9951">Sales Service</text><!--MD5=[f3a768122f89e5ee90a6a96dd02acd47]
entity products--><rect fill="#FEFECE" filter="url(#f19c1zejelnwcv)" height="36.2969" style="stroke:#A80036;stroke-width:1.5;" width="140" x="356" y="113"/><text fill="#000000" font-family="sans-serif" font-size="14" lengthAdjust="spacing" textLength="120" x="366" y="135.9951">Products Service</text><!--MD5=[b68a68a68a2375afee89d77beba8e32a]
link users to zipkin--><path d="M122.034,21.127 C204.768,16.597 363.401,12.235 496,34 C514.257,36.997 534.058,42.313 550.596,47.361 " fill="none" id="users-to-zipkin" style="stroke:#A80036;stroke-width:1.0;"/><polygon fill="#A80036" points="555.619,48.916,548.2046,42.4332,550.8427,47.4373,545.8386,50.0754,555.619,48.916" style="stroke:#A80036;stroke-width:1.0;"/><!--MD5=[81e0442adca1e77d7b73a2461556fc7a]
link sales to zipkin--><path d="M296.299,60 C367.961,60 489.765,60 550.808,60 " fill="none" id="sales-to-zipkin" style="stroke:#A80036;stroke-width:1.0;"/><polygon fill="#A80036" points="555.81,60,546.81,56,550.81,60,546.81,64,555.81,60" style="stroke:#A80036;stroke-width:1.0;"/><!--MD5=[9be842ed4dc0df322cf7aff951ab65ef]
link products to zipkin--><path d="M468.044,112.9 C493.635,101.6145 526.294,87.212 551.071,76.2854 " fill="none" id="products-to-zipkin" style="stroke:#A80036;stroke-width:1.0;"/><polygon fill="#A80036" points="555.917,74.1484,546.0682,74.1193,551.342,76.1656,549.2956,81.4393,555.917,74.1484" style="stroke:#A80036;stroke-width:1.0;"/><!--MD5=[38685607fb9aa01967736b7dbe424fa7]
link users to sales--><path d="M122.461,36.557 C139.953,40.106 159.269,44.026 177.018,47.627 " fill="none" id="users-to-sales" style="stroke:#A80036;stroke-width:1.0;"/><polygon fill="#A80036" points="181.98,48.634,173.9551,42.9243,177.0798,47.6398,172.3644,50.7646,181.98,48.634" style="stroke:#A80036;stroke-width:1.0;"/><!--MD5=[a697ec488051653efe3c03b301f64b5a]
link sales to products--><path d="M287.162,78.1 C313.365,88.1562 346.016,100.6872 372.962,111.0286 " fill="none" id="sales-to-products" style="stroke:#A80036;stroke-width:1.0;"/><polygon fill="#A80036" points="377.924,112.933,370.9547,105.974,373.2559,111.1416,368.0883,113.4428,377.924,112.933" style="stroke:#A80036;stroke-width:1.0;"/><!--MD5=[a2df181bf6d5f895f3b14fa82127de2e]
@startuml
left to right direction
agent zipkin as "Zipkin"
agent users as "Users Service"
agent sales as "Sales Service"
agent products as "Products Service"
users - -> zipkin
sales - -> zipkin
products - -> zipkin
users - -> sales
sales - -> products
@enduml

PlantUML version 1.2021.13beta3(Unknown compile time)
(GPL source distribution)
Java Runtime: Java(TM) SE Runtime Environment
JVM: Java HotSpot(TM) 64-Bit Server VM
Default Encoding: UTF-8
Language: en
Country: US
--></g></svg>